<?xml version="1.0" encoding="utf-8"?>
<!-- Generator: Adobe Illustrator 19.2.0, SVG Export Plug-In . SVG Version: 6.00 Build 0)  -->
<svg version="1.1" id="图层_1" xmlns="http://www.w3.org/2000/svg" xmlns:xlink="http://www.w3.org/1999/xlink" x="0px" y="0px"
	 viewBox="0 0 537.2 339.5" style="enable-background:new 0 0 537.2 339.5;" xml:space="preserve">
<style type="text/css">
	.st0{fill:#FCB322;}
	.st1{fill:none;stroke:#FFCE88;}
	.st2{fill:none;stroke:#FCB322;}
</style>
<g>
	<g>
		<path class="st0" d="M106.6,249.2c-0.4,3.2-1.3,6-2.7,8.6c-1.4,2.6-3.2,4.8-5.4,6.6c-2.2,1.8-4.7,3.3-7.5,4.3
			c-2.8,1-5.9,1.5-9.2,1.5c-3.7,0-7-0.6-10.1-1.8c-3-1.2-5.7-3-7.9-5.5c-2.2-2.5-3.9-5.5-5.1-9.1c-1.2-3.6-1.8-7.9-1.8-12.7
			s0.6-9,1.8-12.5s2.9-6.4,5.1-8.6c2.2-2.2,4.9-3.9,8-5c3.1-1.1,6.6-1.7,10.4-1.7c3.5,0,6.7,0.5,9.6,1.4c2.9,1,5.4,2.3,7.6,4.2
			c2.2,1.8,3.9,4,5.1,6.6c1.2,2.6,2,5.4,2.2,8.6H92.3c-0.4-2.8-1.5-5-3.4-6.5c-1.9-1.6-4.2-2.4-6.9-2.4c-1.5,0-3,0.3-4.3,0.8
			c-1.3,0.5-2.5,1.4-3.5,2.6c-1,1.2-1.8,2.8-2.4,4.8c-0.6,2-0.9,4.5-0.9,7.4c0,5.9,1.1,10.3,3.2,13.2c2.1,2.9,4.6,4.3,7.4,4.3
			c2.8,0,5.2-0.8,7.1-2.3c2-1.5,3.1-3.8,3.4-6.7H106.6z"/>
		<path class="st0" d="M110.6,208.2v-13.3h14.3v13.3H110.6z M110.6,268.8v-54.1h14.3v54.1H110.6z"/>
		<path class="st0" d="M161.6,233.2h13.3v15.4c0,2.9-0.4,5.6-1.3,8.2c-0.8,2.6-2.2,4.9-4,6.9c-1.8,2-4.1,3.6-6.8,4.8
			c-2.8,1.2-6,1.8-9.8,1.8c-4,0-7.3-0.6-10.1-1.8c-2.8-1.2-5.1-2.8-6.9-4.7c-1.8-2-3.1-4.3-3.9-6.9c-0.8-2.6-1.2-5.4-1.2-8.4v-48.4
			H145v14.6h29.9v10.1H145V247c0,3.4,0.6,6.1,1.9,8c1.3,1.9,3.4,2.8,6.3,2.8c2.9,0,5-0.9,6.3-2.7c1.4-1.8,2-4.4,2-7.8V233.2z"/>
		<path class="st0" d="M214.5,261.7c-1,2.4-2.9,4.3-5.6,5.7c-2.7,1.4-5.7,2-9.1,2c-2.9,0-5.5-0.5-7.9-1.4c-2.4-0.9-4.5-2.2-6.3-4
			c-1.8-1.7-3.1-3.8-4.1-6.2c-1-2.4-1.5-5.1-1.5-8.1v-35.1h14.3v33c0,6.7,3,10.1,9.1,10.1c3.3,0,6-1,8-2.9c2-1.9,3-4.3,3-7.3v-33
			h14.3v55.6c0,3.8-0.6,7.2-1.9,10.2c-1.3,3-3,5.5-5.3,7.6c-2.2,2.1-4.9,3.6-7.9,4.7c-3,1.1-6.3,1.6-9.7,1.6c-8,0-14-2-17.9-6
			c-4-4-5.9-9.6-5.9-16.6h13.3c0,3.2,0.9,5.8,2.8,7.6c1.9,1.8,4.7,2.8,8.4,2.8c1.3,0,2.6-0.3,3.7-0.8c1.2-0.5,2.2-1.3,3.1-2.3
			c0.9-1,1.7-2.2,2.2-3.7c0.6-1.5,0.8-3.1,0.8-4.8V261.7z"/>
		<path class="st0" d="M299.4,261.6c-1,2.4-2.9,4.3-5.6,5.7c-2.7,1.4-5.8,2-9.3,2c-4.5,0-8.2-0.8-11.3-2.4c-3-1.6-5.5-3.6-7.4-6.2
			c-1.9-2.6-3.2-5.5-4.1-8.9c-0.8-3.4-1.3-6.8-1.3-10.3c0-4.2,0.6-8,1.9-11.5c1.2-3.5,2.9-6.5,5.1-8.9c2.1-2.5,4.6-4.4,7.5-5.7
			c2.9-1.4,5.9-2,9.2-2c6.7,0,11.8,2.7,15.2,8.1v-6.7h14.3v54.7c0,4.1-0.7,7.7-2.1,10.8c-1.4,3.1-3.3,5.7-5.7,7.8s-5.3,3.7-8.6,4.8
			c-3.3,1.1-6.8,1.6-10.6,1.6c-3.7,0-7.2-0.5-10.5-1.6c-3.2-1.1-6-2.6-8.3-4.5c-2.3-1.9-4.1-4.3-5.4-7.1c-1.3-2.8-2-5.9-2-9.5h13.3
			c0,3.3,1.1,5.8,3.2,7.6c2.2,1.8,5,2.7,8.6,2.7c3.8,0,7-1,9.7-3.1c2.6-2.1,4-4.9,4-8.5V261.6z M287.6,258c3.5,0,6.4-1.3,8.7-4
			c2.3-2.7,3.5-6.3,3.5-10.9c0-11.6-4.1-17.4-12.2-17.4c-8.1,0-12.2,5.5-12.2,16.5c0,4.8,1.2,8.7,3.5,11.6
			C281.2,256.6,284.1,258,287.6,258z"/>
		<path class="st0" d="M354.6,268.8v-7.6c-3.7,6-9.3,9-16.8,9c-2.7,0-5.2-0.5-7.4-1.4c-2.2-1-4.2-2.3-5.8-4.1
			c-1.6-1.8-2.9-3.9-3.8-6.3c-0.9-2.4-1.4-5.1-1.4-8.1v-35.6h14.3v33.4c0,6.7,3,10.1,9.1,10.1c3.7,0,6.4-1.2,8.3-3.5
			c1.9-2.3,2.8-5.3,2.8-8.9v-31.2h14.2v54.1H354.6z"/>
		<path class="st0" d="M374.2,208.2v-13.3h14.3v13.3H374.2z M374.2,268.8v-54.1h14.3v54.1H374.2z"/>
		<path class="st0" d="M432.1,268.8l-0.1-6.6c-3.3,5.4-8.3,8-15.1,8c-3.4,0-6.6-0.7-9.5-2c-2.9-1.3-5.3-3.2-7.4-5.7
			c-2.1-2.5-3.7-5.5-4.8-9.1c-1.2-3.6-1.8-7.7-1.8-12.2c0-4.1,0.5-7.9,1.5-11.3s2.4-6.4,4.3-8.9c1.9-2.5,4.2-4.4,7-5.8
			c2.8-1.4,5.9-2,9.4-2c6.7,0,12,2.8,16.1,8.5v-26.8h14.1v73.9H432.1z M420.2,258.6c3.4,0,6.3-1.4,8.6-4.3c2.3-2.9,3.5-6.6,3.5-11.2
			c0-11.7-4-17.6-12-17.6c-8.2,0-12.3,5.6-12.3,16.7c0,4.8,1.1,8.8,3.4,11.8C413.7,257.1,416.6,258.6,420.2,258.6z"/>
		<path class="st0" d="M464.6,245.5c0.2,4.1,1.4,7.4,3.6,9.8c2.2,2.4,5,3.6,8.5,3.6c2.3,0,4.4-0.5,6.2-1.6c1.8-1.1,3-2.5,3.5-4.5
			h14.7c-1.7,5.6-4.6,9.9-8.8,12.9c-4.2,3-9.2,4.5-15,4.5c-18,0-27.1-9.8-27.1-29.5c0-4.2,0.6-8,1.8-11.3c1.2-3.4,2.9-6.3,5.1-8.7
			c2.2-2.4,5-4.3,8.2-5.6c3.2-1.3,6.9-1.9,11.1-1.9c8.4,0,14.7,2.7,19,8c4.3,5.4,6.4,13.4,6.4,24.2H464.6z M487.2,236.5
			c-0.1-2-0.4-3.7-1-5.2c-0.6-1.5-1.4-2.8-2.5-3.7c-1-1-2.2-1.7-3.5-2.2c-1.3-0.5-2.7-0.7-4.1-0.7c-2.9,0-5.3,1-7.4,3.1
			s-3.3,5-3.6,8.7H487.2z"/>
	</g>
	<g>
		<path class="st1" d="M54.2,150.2h3.9l0.6-20h2.9v-6h4v-13h3v-2h25v4h2v9h2v-7h2v-2h4v-4h3v2h3v3h7v16h2v-42h3v8h4v-5h20v4h1v-7h2
			v44h5v-13h3v-26h2v-11h13v7h5v17h2v-1.7V86.2h6v-8h14v11h3v28h2v16h13v3h6v-3h3v1h2v6h4v33h4v-4h2v7h3v-2h3v-3h2v-3h2v-3h4v5h2
			v-19h10.5l1.9,1h4.7v18.4c0,0,2-1.1,2,1.4v3.2h2v-4h3v-4h3v2h4v-4h9v-56.7v-0.7V95.2h2v-5.5c0,0,0.3-5.5,4.1-10.2
			c0,0-1.3-6.7,0.9-12.7c0,0,0-3.5,1.2-5.4l1.1-21.4l1,21.4c0,0,1.1,2.1,1,5.6c0,0,2,6.7,1,12.7c0,0,3.8,3.6,3.9,9.5
			c0.1,5.9,0,6.1,0,6.1h3.7v12.7l1,0.6v56.7h1v-23h2v3h2v-5.7l2.4-0.2l4.7-5.8l10.3,0.2l2.6,3.4l1.1,5.1l-1,3.1v56.9h2v-23h1v-30
			l2.7-2h9.6l2.7,2.7v3.3h7v16h5.2l0.8-3.6v-3.4h3v-45.4l1-0.3v-5.2h8v-3h16v24h7v5h4v17h3v-2h3v-4h4v5h4v3h2v-2h6v2h9v-18.6
			l3.3-4.4h1.7v5h4v-4h3l3,3.6v-4.6h3v6h1v36h3v6h3v-2h2v-2h3v2h1v-30h14v22h2.8c0,0,2.8-5.8,7.5-5.8c0,0,0.5-2.2,2.3-2.2h5.9"/>
		<path class="st2" d="M54.2,201.2h6.5v-4h5v-4h5v3h6v-32h1v-17h2v-8.9l4,5.3v3.6h2.9l3.1,2.5v-3.5h8v41h4v3h2v-3h3v5h3v-51h4v-3h1
			v-7h8v10h1v12l0,0v35h8v-7h19v3h5v7h2v22h4v-95h15v26h6.3l4.9-8h12.8v8h18v44h3v2h3v3h-6v11h7v6h6v4h4v-3h4v-3h8v3h2v-11h8v5h3v4
			h3v-19h3v-3h6v2h2v3h3v12h24v-4h6v-24h9v23h4v6h2v3l2,1v-3h6v3h5v6h4v-13h3v-3h3v4h3v8h17v-6h4v-4h3v-6h4v6h3v-20.6l3.4-7.4h4.6v3
			h10v-3h4v4h3v3h4v19h8v2h2v2h7v2h3v-18h4v-3h4v5h2v4h2v7h3v-14h4v-7h4v7h6v18h3v-13.9c0,0,3-0.5,3.2-1.9c0,0,2.2-4.5,4.5,0.1
			c0,0,1.3,2.1,3.3,2.5v4.2h5v-3h6v-2h4v-8h2v-9h6v-5h9.5"/>
	</g>
</g>
</svg>
